<?xml version="1.0" standalone="no"?>
<!DOCTYPE svg PUBLIC "-//W3C//DTD SVG 20010904//EN"
 "http://www.w3.org/TR/2001/REC-SVG-20010904/DTD/svg10.dtd">
<svg version="1.0" xmlns="http://www.w3.org/2000/svg"
 width="500.800000pt" height="308.800000pt" viewBox="0 0 500.800000 308.800000"
 preserveAspectRatio="xMidYMid meet">
<metadata>
Created by potrace 1.13, written by Peter Selinger 2001-2015
</metadata>
<g transform="translate(0.000000,308.800000) scale(0.080000,-0.080000)"
fill="#000000" stroke="none">
<path d="M3095 3842 c-16 -10 -88 -49 -160 -87 -71 -37 -134 -71 -140 -75 -5
-4 -82 -44 -170 -90 -88 -45 -164 -86 -170 -90 -5 -4 -77 -42 -160 -85 -82
-43 -154 -81 -160 -85 -5 -4 -68 -38 -140 -75 -71 -37 -134 -71 -140 -75 -5
-4 -73 -40 -150 -80 -77 -40 -153 -81 -170 -90 -16 -10 -109 -60 -205 -111
-96 -51 -204 -108 -240 -127 -36 -19 -180 -95 -320 -170 -140 -74 -290 -155
-334 -178 -43 -24 -80 -44 -82 -44 -2 0 -43 -22 -91 -49 -49 -26 -125 -67
-171 -90 -45 -24 -82 -46 -82 -49 0 -4 44 -32 98 -63 53 -31 158 -91 232 -134
74 -43 160 -93 190 -110 30 -17 143 -82 250 -145 107 -62 256 -147 330 -190
l135 -78 2 -269 c0 -147 2 -274 2 -281 3 -40 128 -113 271 -160 528 -172 1676
-229 2565 -128 242 28 509 80 655 128 143 47 268 120 271 160 0 7 2 134 2 282
l2 268 80 49 c44 28 114 70 155 95 41 25 124 76 185 114 60 37 113 66 117 64
4 -3 8 -119 8 -259 l0 -254 -30 -21 c-98 -70 -90 -227 15 -279 54 -27 100 -26
149 2 54 30 78 67 84 125 5 62 -18 115 -64 145 l-34 22 0 296 0 297 23 14 c12
8 49 30 82 48 314 175 451 250 457 250 20 0 4 20 -29 38 -21 10 -76 39 -123
64 -47 25 -130 69 -185 98 -55 29 -113 61 -130 70 -26 16 -328 176 -620 330
-55 29 -104 56 -110 60 -5 4 -77 42 -160 85 -82 43 -154 81 -160 85 -5 4 -73
40 -150 80 -77 40 -179 95 -228 122 -48 26 -89 48 -91 48 -2 0 -39 20 -82 43
-75 41 -335 180 -544 290 -52 27 -113 60 -135 72 -22 12 -98 53 -170 90 -71
38 -143 77 -160 87 -16 10 -32 18 -35 18 -3 0 -18 -8 -35 -18z m280 -1362
c500 -21 886 -103 1225 -261 92 -43 251 -151 315 -214 55 -53 55 -54 55 -114
0 -34 -3 -61 -6 -61 -3 0 -29 20 -57 43 -249 209 -667 345 -1242 403 -181 19
-812 26 -950 11 -38 -4 -119 -12 -180 -18 -229 -21 -541 -85 -716 -147 -193
-68 -351 -153 -466 -249 -28 -23 -54 -43 -57 -43 -3 0 -6 27 -6 59 0 72 16 95
124 175 153 115 262 172 467 244 280 98 620 158 979 172 275 10 267 10 515 0z
m40 -1290 c802 -23 1337 -107 1388 -217 10 -23 9 -28 -21 -53 -94 -78 -485
-145 -1052 -181 -238 -15 -961 -15 -1200 0 -572 36 -981 107 -1059 185 -21 22
-23 28 -13 50 48 105 599 194 1332 215 140 5 264 8 275 9 11 1 169 -3 350 -8z"/>
<path d="M5486 887 c-5 -30 -14 -151 -52 -671 -8 -110 -12 -201 -10 -203 1 -2
16 15 31 37 39 57 102 112 158 139 39 19 60 22 108 19 l59 -4 0 358 c0 197 -2
358 -5 358 -2 0 -30 -7 -62 -15 -73 -19 -141 -19 -186 0 l-36 15 -5 -33z"/>
</g>
</svg>
