<?xml version="1.0" standalone="no"?>
<!DOCTYPE svg PUBLIC "-//W3C//DTD SVG 20010904//EN"
 "http://www.w3.org/TR/2001/REC-SVG-20010904/DTD/svg10.dtd">
<svg version="1.0" xmlns="http://www.w3.org/2000/svg"
 width="819.200000pt" height="819.200000pt" viewBox="0 0 819.200000 819.200000"
 preserveAspectRatio="xMidYMid meet">
<metadata>
Created by potrace 1.13, written by Peter Selinger 2001-2015
</metadata>
<g transform="translate(0.000000,819.200000) scale(0.080000,-0.080000)"
fill="#000000" stroke="none">
<path d="M0 5120 l0 -5120 5120 0 5120 0 0 5120 0 5120 -5120 0 -5120 0 0
-5120z m9585 5073 c303 -85 529 -314 608 -613 l22 -85 0 -4375 0 -4375 -22
-85 c-80 -303 -309 -531 -614 -613 l-84 -22 -4375 0 -4375 0 -85 23 c-304 80
-533 309 -613 612 l-22 85 0 4375 0 4375 22 85 c88 334 360 580 698 629 33 5
1989 8 4410 7 l4350 -1 80 -22z"/>
<path d="M720 9924 c-197 -52 -354 -211 -405 -409 -13 -52 -15 -551 -15 -4395
0 -3844 2 -4343 15 -4395 51 -201 208 -357 411 -409 56 -14 481 -16 4394 -16
3913 0 4338 2 4394 16 203 52 360 208 411 409 13 52 15 551 15 4395 0 4785 6
4383 -63 4520 -43 88 -152 196 -237 238 -139 67 262 62 -4525 61 -3759 0
-4347 -2 -4395 -15z m2650 -2084 l0 -1540 1750 0 1750 0 0 1540 0 1540 840 0
840 0 0 -4260 0 -4260 -840 0 -840 0 0 1870 0 1870 -1750 0 -1750 0 0 -1870 0
-1870 -840 0 -840 0 0 4260 0 4260 840 0 840 0 0 -1540z"/>
</g>
</svg>
